<svg xmlns="http://www.w3.org/2000/svg" viewBox="0 0 108 108" width="108" height="108">
  <!-- M3 Expressive squircle background — primary container purple -->
  <rect width="108" height="108" rx="36" fill="#D0BCFF"/>

  <!-- Horse silhouette in on-primary-container tone -->
  <path
    d="M16 63C16 57 19 53 25 51L38 47C44 45 48 41 51 34C52 31 54 29 57 29L58 15C58 11 63 10 65 14L71 28C79 31 85 38 87 48C89 60 86 71 81 79C79 83 77 86 76 88L48 88C48 79 45 73 39 70C33 67 27 68 22 70C18 71 16 68 16 63Z"
    fill="#381E72"
  />

  <!-- Mane notches in background colour -->
  <path
    d="M69 33C74 35 78 39 80 45L73 47C71 41 69 37 69 33ZM81 52C82 57 82 62 81 67L74 65C75 60 75 56 74 52ZM79 73C78 77 76 81 74 85L68 82C70 78 71 74 72 71Z"
    fill="#D0BCFF"
    opacity="0.85"
  />

  <!-- Eye — punched in background colour so it reads at small sizes -->
  <circle cx="54" cy="45" r="3.4" fill="#D0BCFF"/>

  <!-- Nostril — settles "horse" vs "dog" at medium size -->
  <circle cx="24" cy="59" r="2" fill="#D0BCFF"/>
</svg>
